<svg xmlns="http://www.w3.org/2000/svg" width="153.149" height="72.785" viewBox="0 0 153.149 72.785">
  <g id="Group_1" data-name="Group 1" transform="translate(-716 -2215.97)">
    <g id="logo-removebg-preview" transform="translate(798.973 2246.692)">
      <path id="Path_1" data-name="Path 1" d="M56.707-48.292c-3.3,2.273-4.205,6.82-2.16,10.912,1.478,2.955,1.478,3.3-.114,3.3-.909,0-3.41,1.7-5.569,3.864-3.3,3.3-3.865,4.66-3.865,9.207C45-8.056,61.14-3.055,67.732-13.853a13.1,13.1,0,0,0,0-14.321C65-32.493,65-32.948,66.937-32.948c3.41,0,5.8-4.774,5.456-10.571C72.052-49.088,62.163-52.157,56.707-48.292Zm10,1.7c2.5,1.364,2.955,6.706.8,8.866-2.273,2.273-8.638,1.7-10-.8-1.591-3.183-1.478-4.319,1.137-6.933C61.14-47.951,63.413-48.292,66.709-46.587ZM62.845-28.97c3.3,2.387,4.319,7.5,2.16,11.707-1.591,2.955-2.273,3.3-7.388,3.41-4.66.114-6.024-.227-7.5-2.273-3.978-5.91-.114-14.549,6.706-14.549A12.866,12.866,0,0,1,62.845-28.97Z" transform="translate(-2.249 50.02)"/>
      <path id="Path_2" data-name="Path 2" d="M14.221-34.409C6.947-31.226,5.015-20.087,10.7-13.95c3.183,3.524,7.161,4.774,7.956,2.5.455-1.137-.682-2.5-3.3-3.978-3.41-2.046-3.865-2.842-3.865-6.933,0-7.388,6.138-11.366,12.5-7.956,3.069,1.591,5.228,9.207,3.524,12.275-1.591,2.955-.455,5.91,2.273,5.91,1.7,0,2.16-.8,2.16-3.751,0-5,4.66-11.821,7.047-10.343.455.341.909,3.865.909,7.956,0,6.479.227,7.388,2.046,7.047,1.591-.341,1.932-1.7,1.932-8.752,0-6.82-.341-8.525-2.16-9.889-2.5-1.7-5.8-1.137-8.866,1.478-1.591,1.478-1.932,1.364-2.614-.8C29.338-32.022,23.314-36,20.018-36A25.061,25.061,0,0,0,14.221-34.409Z" transform="translate(-7.388 51.935)"/>
    </g>
    <path id="icons8-futurama-professor-farnsworth" d="M24.949,9a22.7,22.7,0,0,0-10.84,2.753C10.718,13.685,8,16.895,8,21.347c0,4.6,3.287,10.932,6.48,16.39,2.95,5.041,5.647,8.847,6.08,9.455a5.232,5.232,0,0,0-1.192,3.918,6.45,6.45,0,0,0,2.406,4.5,16.192,16.192,0,0,1,3.75,4.7A24.336,24.336,0,0,0,26.9,62.636a6.849,6.849,0,0,0,2.7,2.675v3.929a1.137,1.137,0,1,0,2.273,0V65.713a3.367,3.367,0,0,0,1.625-.38,3.58,3.58,0,0,0,1.772-2.744,1.137,1.137,0,1,0-2.247-.337c-.021.143-.231.879-.6,1.077t0,0a1.611,1.611,0,0,1-.75.122,2.8,2.8,0,0,1-1.119-.2h0a7.181,7.181,0,0,1-1.767-1.891,22.222,22.222,0,0,1-1.243-2.1,18.791,18.791,0,0,0-4.191-5.288C22.225,52.9,21.706,52.416,21.637,51a3.261,3.261,0,0,1,.657-2.349,2.808,2.808,0,0,1,1.882-.542,5.255,5.255,0,0,1,3.5,1.5,1.137,1.137,0,1,0,1.563-1.652,7.763,7.763,0,0,0-3.792-1.994c.378-.237.8-.483,1.252-.715a48.515,48.515,0,0,1,9.932-3.024A8.283,8.283,0,0,0,38.3,46.5a5.67,5.67,0,0,0,4.284,2.284h9.739v-.033c.188.014.376.033.568.033,4.789,0,8.525-4.421,8.525-9.661,0-.189-.015-.375-.024-.562a26.694,26.694,0,0,1,3.534.453A19.082,19.082,0,0,1,71.5,41.4a11.737,11.737,0,0,1,4.178,5.854,8.783,8.783,0,0,1,.5,2.473,4.182,4.182,0,0,1-.575-.191,22.085,22.085,0,0,0-3.19-1.094c-1.448-.379-2.967-.469-4.193-.686a3.567,3.567,0,0,1-2.313-1.008,1.7,1.7,0,0,1-.244-.972v0a2.71,2.71,0,0,1,1.017-1.785,1.137,1.137,0,1,0-1.421-1.776,4.709,4.709,0,0,0-1.869,3.516s0,0,0,0a4.033,4.033,0,0,0,.628,2.278v0a5.348,5.348,0,0,0,3.807,1.98c.652.115,1.214.212,1.851.3a1.137,1.137,0,0,0,.118.391A19.131,19.131,0,0,0,78.9,58.245a9.41,9.41,0,0,1-1.09.209c-1.871.189-4.632.2-8.585.2a14.139,14.139,0,0,0-4.6.628A4.935,4.935,0,0,0,61.5,62a1.137,1.137,0,1,0,2.114.837,2.586,2.586,0,0,1,1.763-1.412,12.34,12.34,0,0,1,3.852-.5c.929,0,1.595-.009,2.4-.011a1.263,1.263,0,0,1,.022.373,1.373,1.373,0,0,1-.5,1.117,8.084,8.084,0,0,1-1.687,1.145c-1.445.806-3.415,1.709-4.42,3.745a11.018,11.018,0,0,1-5.819,5.9,9.461,9.461,0,0,0-3.183,3,15.44,15.44,0,0,0-2.127,4.06,1.137,1.137,0,1,0,2.158.71,13.548,13.548,0,0,1,1.814-3.439,8.064,8.064,0,0,1,2.366-2.309A13.863,13.863,0,0,0,67.087,68.3c.576-1.168,1.967-1.918,3.487-2.766A9.426,9.426,0,0,0,72.765,64a3.89,3.89,0,0,0,1.159-2.719c0-.156-.018-.249-.022-.384,1.616-.023,3.01-.07,4.14-.184,2.083-.211,3.59-.663,4.646-1.734a1.137,1.137,0,0,0-.582-1.914c-5.857-1.186-8.291-4.509-9.295-6.1.7.229,1.466.469,1.909.655a4.983,4.983,0,0,0,2.033.564,1.78,1.78,0,0,0,1.47-1,3.156,3.156,0,0,0,.246-1.37,10.573,10.573,0,0,0-.639-3.3,15.161,15.161,0,0,0-2.93-5.135A11.256,11.256,0,0,0,76.2,36a10.958,10.958,0,0,0-1.689-6.056,5.617,5.617,0,0,0-4.562-2.755,4.553,4.553,0,0,0-1,.122c-1.153-1.762-3.24-2.548-5-2.992a15.048,15.048,0,0,0-3.2-.477,8.288,8.288,0,0,0-4.753-2.933,13.245,13.245,0,0,0-2.928-.435,7.835,7.835,0,0,0-4.979-4.131,10.063,10.063,0,0,0-3.326-.46,67.64,67.64,0,0,0-6.673-3.372C34.153,10.774,29.23,9,24.949,9Zm0,2.273c3.627,0,8.417,1.636,12.219,3.312a63.691,63.691,0,0,1,6.156,3.09,1.131,1.131,0,0,0-.089.417,1.2,1.2,0,0,0,.329.808l.171.135a.857.857,0,0,0,.2.1.736.736,0,0,0,.207.069,1.69,1.69,0,0,0,.226.022A1.1,1.1,0,0,0,45.5,18.148a10.187,10.187,0,0,1,1.934.368,5.245,5.245,0,0,1,3.818,3.341,1.137,1.137,0,0,0,.1.218.865.865,0,0,0-.064.131.7.7,0,0,0-.069.218,1.384,1.384,0,0,0-.022.215,1.122,1.122,0,0,0,1.137,1.137.957.957,0,0,0,.433-.091,1.058,1.058,0,0,0,.375-.238,1.2,1.2,0,0,0,.306-.7,16.1,16.1,0,0,1,1.994.362c1.656.418,3.3,1.242,3.829,2.309a1.137,1.137,0,0,0,.981.633,16.746,16.746,0,0,1,3.146.468,8.267,8.267,0,0,1,3.01,1.37l-1.925.846-2.3,1.008c-.633.278-.956.417-1.1.484l0,0,0,0a5.852,5.852,0,0,0-2.318,1.885A7.959,7.959,0,0,0,52.9,29.459a7.72,7.72,0,0,0-4.353,1.363l-.058-.142-4.054,1.667L41.63,33.5l-.932.382-.264.109-.071.029,0,0c-2.043.776-3.4,2.929-3.745,5.869a48.917,48.917,0,0,0-10.942,3.332,17.74,17.74,0,0,0-3.494,2.313c-.686-.972-3.028-4.321-5.734-8.946-3.132-5.352-6.169-11.837-6.169-15.242,0-3.555,2.027-5.949,4.962-7.621A20.821,20.821,0,0,1,24.949,11.273ZM20.5,16.956a2.273,2.273,0,1,0,2.273,2.273A2.273,2.273,0,0,0,20.5,16.956Zm18.979.437a1.114,1.114,0,0,0-.451.04,1.139,1.139,0,0,0,.328,2.229,1.023,1.023,0,0,0,.317-.047,1.137,1.137,0,0,0-.2-2.222ZM35.037,19.8a1.129,1.129,0,0,0-.826.271,1.149,1.149,0,0,0-.127,1.614,1.141,1.141,0,1,0,.952-1.885Zm13.269,1.736a1.138,1.138,0,0,0,.078,2.273h.08a1.139,1.139,0,0,0-.158-2.273Zm-3.7.615a1.158,1.158,0,0,0-.451.044,1.14,1.14,0,0,0,.34,2.229,1.192,1.192,0,0,0,.331-.058,1.136,1.136,0,0,0-.22-2.215ZM31.763,23.783a1.091,1.091,0,0,0-.326.084,1.309,1.309,0,0,0-.375.238,1.2,1.2,0,0,0-.329.808,1.137,1.137,0,0,0,.091.433,1.17,1.17,0,0,0,.238.375,1.309,1.309,0,0,0,.375.238,1.137,1.137,0,0,0,.433.091,1.2,1.2,0,0,0,.808-.329,1.17,1.17,0,0,0,.238-.375.957.957,0,0,0,.091-.433,1.2,1.2,0,0,0-.329-.808A1.143,1.143,0,0,0,31.763,23.783Zm9.393.3a1.119,1.119,0,0,0-.819.286,1.135,1.135,0,1,0,1.512,1.694,1.135,1.135,0,0,0-.693-1.98ZM19.935,26.049a1.7,1.7,0,1,0,1.7,1.7A1.7,1.7,0,0,0,19.935,26.049Zm18.528,1.159a.736.736,0,0,0-.207.069.857.857,0,0,0-.2.1,1.781,1.781,0,0,0-.171.135,1.158,1.158,0,0,0,0,1.616,1.781,1.781,0,0,0,.171.135.857.857,0,0,0,.2.1.736.736,0,0,0,.207.069,1.168,1.168,0,0,0,.453,0,.736.736,0,0,0,.207-.069.857.857,0,0,0,.2-.1.949.949,0,0,0,.306-.306.857.857,0,0,0,.1-.2.736.736,0,0,0,.069-.207,1.168,1.168,0,0,0,0-.453.736.736,0,0,0-.069-.207.857.857,0,0,0-.1-.2.949.949,0,0,0-.306-.306.857.857,0,0,0-.2-.1.736.736,0,0,0-.207-.069A1.015,1.015,0,0,0,38.462,27.208Zm31.483,2.251A3.323,3.323,0,0,1,72.616,31.2,8.831,8.831,0,0,1,73.924,36a9.391,9.391,0,0,1-.773,3.8c-.136-.1-.262-.207-.4-.3a19.843,19.843,0,0,0-6.718-2.569c-.028-.307-.062-.611-.062-.93a8.831,8.831,0,0,1,1.308-4.8A3.323,3.323,0,0,1,69.946,29.459ZM64.736,31.1A11.511,11.511,0,0,0,63.694,36c0,.175.011.345.018.517-1.413-.192-2.39-.235-2.391-.235a1.137,1.137,0,0,0-.271.031,10.334,10.334,0,0,0-.826-2.1l.04.007a3.7,3.7,0,0,1,1.761-1.925c-.083.037.445-.2,1.072-.471Zm-11.839.63c3.372,0,6.251,3.212,6.251,7.388s-2.88,7.388-6.251,7.388S46.645,43.3,46.645,39.12,49.525,31.732,52.9,31.732Zm-7.415,2.64a10.628,10.628,0,0,0-1.11,4.748,10.241,10.241,0,0,0,3.035,7.388H42.589a3.549,3.549,0,0,1-2.524-1.45,6.058,6.058,0,0,1-1.327-3.789c0-3.081,1.157-4.638,2.426-5.121l0,0a.418.418,0,0,0,.053-.022l.075-.029.266-.111.932-.382,2.8-1.152Zm12.56,16.667a1.137,1.137,0,0,0-1.165,1.217,13.434,13.434,0,0,1-1.041,6.3l0,0c-.383.869-.683,1.246-1.134,2.271a15.772,15.772,0,0,0-1.232,7.344,1.137,1.137,0,1,0,2.269-.129,13.434,13.434,0,0,1,1.041-6.3l0,0c.379-.86.679-1.239,1.134-2.271a15.772,15.772,0,0,0,1.232-7.344A1.137,1.137,0,0,0,58.042,51.039ZM30.719,53.315a1.137,1.137,0,0,0-.932,1.78l2.273,3.41a1.137,1.137,0,1,0,1.891-1.261l-2.273-3.41A1.137,1.137,0,0,0,30.719,53.315Zm.013,18.574a1.137,1.137,0,1,0,1.137,1.137A1.14,1.14,0,0,0,30.732,71.889Zm0,3.8a1.137,1.137,0,1,0,1.137,1.137A1.14,1.14,0,0,0,30.732,75.685Zm.107,3.792a1.143,1.143,0,0,0-.915.322l-.135.171a.857.857,0,0,0-.1.2.736.736,0,0,0-.069.207,1.527,1.527,0,0,0-.022.226,1.137,1.137,0,0,0,.091.433,1.309,1.309,0,0,0,.238.375,1.2,1.2,0,0,0,.808.329,1.137,1.137,0,0,0,.433-.091,1.014,1.014,0,0,0,.613-.613,1.137,1.137,0,0,0,.091-.433,1.527,1.527,0,0,0-.022-.226.736.736,0,0,0-.069-.207.857.857,0,0,0-.1-.2L31.54,79.8a1.308,1.308,0,0,0-.375-.238A1.092,1.092,0,0,0,30.839,79.477Z" transform="translate(708 2206.97)"/>
  </g>
</svg>
